Coordinates
version=1
nRows=9
nColumns=42
inDegrees=yes

Units are S.I. units (second, meters, Newtons, ...)
If the header above contains a line with 'inDegrees', this indicates whether rotational values are in degrees (yes) or radians (no).

endheader
time	pelvis_tilt	pelvis_list	pelvis_rotation	pelvis_tx	pelvis_ty	pelvis_tz	hip_flexion_r	hip_adduction_r	hip_rotation_r	knee_angle_r	knee_adduction_r	knee_angle_r_beta	ankle_angle_r	subtalar_angle_r	mtp_angle_r	hip_flexion_l	hip_adduction_l	hip_rotation_l	knee_angle_l	knee_adduction_l	knee_angle_l_beta	ankle_angle_l	subtalar_angle_l	mtp_angle_l	lumbar_extension	lumbar_bending	lumbar_rotation	arm_flex_r	arm_add_r	arm_rot_r	elbow_flex_r	pro_sup_r	wrist_flex_r	wrist_dev_r	arm_flex_l	arm_add_l	arm_rot_l	elbow_flex_l	pro_sup_l	wrist_flex_l	wrist_dev_l
      3.50000000	      2.44184160	     -3.32271829	     -1.49031830	     -0.06586878	      0.92344667	     -0.07765780	      3.35447067	     -3.92918249	    -20.85109300	     31.17834143	      4.76942118	      0.54416471	     22.45981588	     10.76997359	     -7.57113549	     24.29167910	     -8.65702765	    -18.46946543	     38.02902122	     -2.42729811	      0.66373163	     10.52998770	     -1.35371392	     -7.57113549	    -18.01098766	      4.66246681	     -1.96001724	      9.59943746	    -11.01191866	     -0.09046344	     37.00429684	     90.00000001	      0.00000000	      0.00000000	    -13.10519460	    -11.03011285	     -0.97451655	     56.53541785	     90.00000001	      0.00000000	      0.00000000
      3.51000000	      2.51203899	     -3.19036396	     -1.80323098	     -0.06241219	      0.92382868	     -0.07834439	      2.99257697	     -3.98211706	    -20.39364635	     30.85285488	      4.58237426	      0.53848390	     22.46062334	     10.74520707	     -7.57085906	     24.01649866	     -8.31953873	    -18.17067986	     38.29824429	     -2.55471498	      0.66843046	     10.69436859	     -1.63290302	     -7.57085906	    -17.94794975	      4.20204829	     -1.81388775	      9.48254007	    -10.87796797	     -0.09296285	     37.02280151	     90.00000001	      0.00000000	      0.00000000	    -13.12914477	    -11.08038962	     -1.02529171	     56.47690685	     90.00000001	      0.00000000	      0.00000000
      3.52000000	      2.86586527	     -3.15686449	     -2.17254262	     -0.05876633	      0.92511402	     -0.07905116	      2.05593626	     -4.03210472	    -19.41005725	     30.07480467	      5.03470834	      0.52490436	     22.16426418	      9.90637567	     -7.56819886	     23.08211329	     -8.12963805	    -17.53433386	     38.04316715	     -2.15856861	      0.66397852	     10.38621590	     -3.63574144	     -7.56819886	    -18.21652866	      3.85865045	     -1.58414733	      9.38286245	    -10.72469021	     -0.25256883	     37.17520699	     90.00000001	      0.00000000	      0.00000000	    -13.13399289	    -11.06428827	     -1.10067505	     56.36721531	     90.00000001	      0.00000000	      0.00000000
      3.53000000	      2.79394771	     -3.21770626	     -2.39789665	     -0.05524896	      0.92531261	     -0.08008196	      1.89316376	     -4.05085884	    -19.36852432	     30.03514640	      4.98120001	      0.52421220	     22.15249318	      9.90511598	     -7.56813525	     22.90176700	     -8.08232687	    -17.41582490	     38.16853429	     -2.24011752	      0.66616659	     10.41394874	     -3.66731850	     -7.56813525	    -17.95717684	      3.70536534	     -1.53229176	      9.30076020	    -10.58954992	     -0.22663009	     37.18914077	     90.00000001	      0.00000000	      0.00000000	    -13.26618999	    -11.04320541	     -1.10138549	     56.30835990	     90.00000001	      0.00000000	      0.00000000
      3.54000000	      2.95176329	     -3.01712571	     -2.82476467	     -0.05166945	      0.92617980	     -0.08079164	      1.27163854	     -4.27896339	    -18.74675762	     29.39440347	      5.08072170	      0.51302912	     22.07332723	     10.04036699	     -7.56680479	     22.26588521	     -7.89340648	    -17.48987182	     38.14756612	     -1.99330193	      0.66580063	     10.73478368	     -4.56304591	     -7.56680479	    -17.97983433	      3.16699491	     -1.30127577	      9.11936495	    -10.47095775	     -0.18823765	     37.48231806	     90.00000001	      0.00000000	      0.00000000	    -13.27200129	    -11.01972013	     -1.32670234	     56.16274166	     90.00000001	      0.00000000	      0.00000000
      3.55000000	      2.84289305	     -3.01439698	     -3.04585185	     -0.04826245	      0.92643339	     -0.08191301	      1.10425416	     -4.36164386	    -18.75234795	     29.23820911	      5.00916371	      0.51030302	     22.03971337	     10.04036967	     -7.56668051	     22.08646989	     -7.85437776	    -17.49576754	     38.21857573	     -1.95962587	      0.66703998	     10.78043859	     -4.62661632	     -7.56668051	    -17.68599062	      2.95771369	     -1.26439824	      9.03476808	    -10.31624432	     -0.15015608	     37.53731209	     90.00000001	      0.00000000	      0.00000000	    -13.40940695	    -11.01353876	     -1.34788445	     56.08536688	     90.00000001	      0.00000000	      0.00000000
      3.56000000	      2.71564150	     -2.87349521	     -3.31531443	     -0.04485417	      0.92679988	     -0.08297868	      0.87678144	     -4.55909976	    -18.71148623	     28.81698498	      4.92114371	      0.50295127	     21.94495053	     10.12389539	     -7.56645534	     21.83349954	     -7.78484244	    -17.75793070	     38.19445974	     -1.74849086	      0.66661908	     10.97087935	     -4.80013933	     -7.56645534	    -17.36560371	      2.58429489	     -1.22825185	      8.90658630	    -10.15747547	     -0.09685016	     37.69661401	     90.00000001	      0.00000000	      0.00000000	    -13.49601354	    -11.02896893	     -1.44614442	     55.97021422	     90.00000001	      0.00000000	      0.00000000
      3.57000000	      2.72747083	     -2.73050576	     -3.63294247	     -0.04144802	      0.92754580	     -0.08404523	      0.42194551	     -4.79493340	    -18.50861886	     28.24288488	      4.95880184	      0.49293133	     21.73751415	     10.42502238	     -7.56600774	     21.31032919	     -7.69053326	    -18.21335743	     37.91680480	     -1.61689356	      0.66177309	     11.24796656	     -5.01292764	     -7.56600774	    -17.21325823	      2.19265414	     -1.07878955	      8.72904458	    -10.03674329	      0.00072081	     38.02000804	     90.00000001	      0.00000000	      0.00000000	    -13.46654476	    -10.93885532	     -1.65212546	     55.81660643	     90.00000001	      0.00000000	      0.00000000
      3.58000000	      2.95425155	     -2.61088714	     -3.96147611	     -0.03800303	      0.92875090	     -0.08521117	     -0.31011043	     -5.07092863	    -18.35635115	     27.62246285	      5.09491014	      0.48210292	     21.48373141	     10.90029527	     -7.56520588	     20.46343771	     -7.53924738	    -18.78776992	     37.46897428	     -1.63346422	      0.65395697	     11.37107766	     -4.91452624	     -7.56520588	    -17.33039124	      1.83531481	     -0.88396417	      8.55851376	     -9.99728722	      0.20679251	     38.47880528	     90.00000001	      0.00000000	      0.00000000	    -13.43712897	    -10.82691594	     -1.95775318	     55.59353575	     90.00000001	      0.00000000	      0.00000000
